<svg xmlns="http://www.w3.org/2000/svg"  viewBox="0 0 40 40" width="40px" height="40px" fill-rule="evenodd" clip-rule="evenodd"><path fill="#98ccfd" d="M22,35.5c-0.276,0-0.5-0.224-0.5-0.5V5c0-0.276,0.224-0.5,0.5-0.5h4c5.243,0,8.5,3.035,8.5,7.921v16 c0,4.036-3.224,7.079-7.5,7.079H22z"/><path fill="#4788c7" d="M26,5c4.935,0,8,2.844,8,7.421v16C34,32.172,30.991,35,27,35h-5V5H26 M26,4h-4c-0.552,0-1,0.448-1,1 v30c0,0.552,0.448,1,1,1h5c4.401,0,8-3.135,8-7.579v-16C35,7.077,31.281,4,26,4L26,4z"/><path fill="#dff0fe" d="M19,5.066v29.809c0,0.599-0.522,1.063-1.117,0.993L11,35.059c0,0-5.569-0.941-5.569-5.647	c0-2.824-0.4-17.882,0.569-19.765s2.092-3.765,5-4.706c1.361-0.44,5.087-0.744,6.934-0.873C18.512,4.028,19,4.486,19,5.066z"/><path fill="#4788c7" d="M18,5l0,30l-5,0c-3.991,0-7-2.828-7-6.579v-16C6,7.844,9.065,5,14,5H18 M18,4h-4	c-5.281,0-9,3.077-9,8.421v16C5,32.866,8.599,36,13,36l5,0c0.552,0,1-0.448,1-1V5C19,4.448,18.552,4,18,4L18,4z"/><circle cx="12" cy="14" r="3.5" fill="#98ccfd" fill-rule="evenodd" clip-rule="evenodd"/><path fill="#4788c7" d="M12,11c1.654,0,3,1.346,3,3s-1.346,3-3,3s-3-1.346-3-3S10.346,11,12,11 M12,10c-2.21,0-4,1.79-4,4 s1.79,4,4,4s4-1.79,4-4S14.21,10,12,10L12,10z"/><circle cx="28" cy="25" r="3.5" fill="#e1ebf2" fill-rule="evenodd" clip-rule="evenodd"/><path fill="#4788c7" d="M28,22c1.654,0,3,1.346,3,3s-1.346,3-3,3s-3-1.346-3-3S26.346,22,28,22 M28,21c-2.21,0-4,1.79-4,4 s1.79,4,4,4s4-1.79,4-4S30.21,21,28,21L28,21z"/></svg>