<svg id="Calque_1" data-name="Calque 1" xmlns="http://www.w3.org/2000/svg" xmlns:xlink="http://www.w3.org/1999/xlink" viewBox="0 0 1050.09 385.12"><defs><style>.cls-1{fill:#3c02ae;}.cls-2{fill:url(#Dégradé_sans_nom_13);}.cls-3{fill:url(#Dégradé_sans_nom_13-2);}</style><linearGradient id="Dégradé_sans_nom_13" x1="78.44" y1="364.85" x2="1013.4" y2="79.75" gradientUnits="userSpaceOnUse"><stop offset="0" stop-color="#498cf6"/><stop offset="0.24" stop-color="#3ef6fc"/><stop offset="0.51" stop-color="#f4fdff"/><stop offset="0.73" stop-color="#51ffff"/><stop offset="1" stop-color="#498cf6"/></linearGradient><linearGradient id="Dégradé_sans_nom_13-2" x1="307.14" y1="221.06" x2="768.47" y2="221.06" xlink:href="#Dégradé_sans_nom_13"/></defs><rect class="cls-1" width="1050.09" height="385.12"/><path class="cls-2" d="M1057.31,398.92H38V44.61H1057.31ZM76.54,360.41H1018.8V83.12H76.54Z" transform="translate(-23.91 -27.92)"/><path class="cls-3" d="M358.8,201.3q-.36-8.88-8-9.79a9.28,9.28,0,0,0-7.16,3.36c-2,2.23-3,4.26-3,6.07q0,6,7.8,10.87l15.4,9.61a28.92,28.92,0,0,1,10.7,18.13,83.84,83.84,0,0,1-5.8,22.48q-2.17,6-10.52,11.05a44.79,44.79,0,0,1-23.2,6q-12.87,0-21.21-5.61-6.7-4.36-6.7-8.52,0-2.37,3.44-24.11l21.94.18a35.67,35.67,0,0,0-1.27,6.34q0,6.89,6.7,6.89,9.8,0,9.79-15.77-1.64-5.62-16.49-15.59-14.33-9.42-14.51-14.5.74-6.52,3.63-20.66,2.72-9.61,15.23-16,9.78-5.07,17.58-5.07a33.76,33.76,0,0,1,16.49,4.17q8.7,4.71,10.52,12.87,1.08,5.61-.18,16.85Zm87-11.06-13.6,88.46-29.36.91,12.69-88.1-23,.55,4.35-25.74,70.51-1.82-3.45,25.2Zm56.38,88.82-33.72.37q55.65-103.69,61.09-117.1l33.71-.18,8.34,115.1-29,.91-1.45-19-28.46-.54ZM525,237l14.5,1.09-2.18-30.27Zm62,41.51,23.57-113.29q28.63-1.09,41.14-.36Q680,164.69,680,196.59a43.72,43.72,0,0,1-2.9,12.5q-5.8,14.68-20.12,24.84l20.12,45.86-31.18.18L634.7,240.45l-9.61,1.64-6.89,36.79ZM640.31,191q-.54,0-6,1.09l-5.07,27.19q16.68-4.91,19.39-20.85Q648.65,191,640.31,191Zm106.59-.73L733.31,278.7l-29.37.91,12.69-88.1-23,.55L698,166.32l70.51-1.82L765,189.7Z" transform="translate(-23.91 -27.92)"/></svg>