<svg id="Calque_1" data-name="Calque 1" xmlns="http://www.w3.org/2000/svg" xmlns:xlink="http://www.w3.org/1999/xlink" viewBox="0 0 994.09 364.58"><defs><style>.cls-1{fill:#3c02ae;}.cls-2{fill:url(#Dégradé_sans_nom_13);}.cls-3{fill:url(#Dégradé_sans_nom_13-2);}</style><linearGradient id="Dégradé_sans_nom_13" x1="108.53" y1="357.15" x2="993.63" y2="87.26" gradientUnits="userSpaceOnUse"><stop offset="0" stop-color="#498cf6"/><stop offset="0.24" stop-color="#3ef6fc"/><stop offset="0.51" stop-color="#f4fdff"/><stop offset="0.73" stop-color="#51ffff"/><stop offset="1" stop-color="#498cf6"/></linearGradient><linearGradient id="Dégradé_sans_nom_13-2" x1="335.65" y1="219.97" x2="764.98" y2="219.97" xlink:href="#Dégradé_sans_nom_13"/></defs><rect class="cls-1" width="994.09" height="364.58"/><path class="cls-2" d="M1035.2,389.4H70.28V54H1035.2ZM106.74,353h892V90.45h-892Z" transform="translate(-56.91 -38.19)"/><path class="cls-3" d="M392.84,201.68c.14-1.4.21-2.73.21-4q0-10.71-6.73-10.72-6.09,0-9.88,6.94L368,239.32a10,10,0,0,0,1.16,6.93,6,6,0,0,0,5.57,2.95q11.57,0,13-18.92,6.51-.42,29.22-1.69-.21,2.53-1.26,8.2-9,47.73-46.05,47.73-18.07,0-27.33-9.46-6.74-6.93-6.73-14.93,0-7.56,4.42-34.9,5-30.49,9.56-43.63t18.61-21.13a53.25,53.25,0,0,1,26.91-7.36,37.67,37.67,0,0,1,14.09,3.58q14.08,6.51,15.14,23.33l-3.15,20.82Zm92.93,85.58,7.78-47.73-20.19,1.05-8.2,46.89-29,.21q7.14-40.17,21.65-133.52l30.28-.21-8.41,54.67q10.93,2.1,17.67-.21.41-2.1,9-54.67h31.11L516.05,287.26Zm91.87.21-39.1.42q64.55-120.27,70.86-135.83l39.1-.21,9.68,133.51-33.65,1.05-1.68-22.07-33-.63Zm26.5-48.78L621,240l-2.53-35.12ZM740,184.44,724.19,287.05l-34.07,1.05,14.72-102.19-26.7.63,5.05-29.85L765,154.58l-4,29.23Z" transform="translate(-56.91 -38.19)"/></svg>